# xmcd CD database file
#
# Track frame offsets:
#	150
#	24025
#	50090
#
# Disc length: 984 seconds
#
# Revision: 0
# Processed by: cddbd v1.5.1PL0 Copyright (c) Steve Scherf et al.
# Submitted via: CDex 1.51
#
DISCID=1a03d603
DTITLE=チェッカーズ - Present for you
DYEAR=1992
DGENRE=JPop
TTITLE0=Present for you
TTITLE1=Thank you very much!!
TTITLE2=Present for you(カラオケ)
EXTD=YEAR: 1992
EXTT0=
EXTT1=
EXTT2=
PLAYORDER=
